<mxfile host="app.diagrams.net" agent="Mozilla/5.0 (X11; Ubuntu; Linux x86_64; rv:142.0) Gecko/20100101 Firefox/142.0" version="28.2.1">
  <diagram id="R2lEEEUBdFMjLlhIrx00" name="Page-1">
    <mxGraphModel dx="648" dy="363" grid="1" gridSize="10" guides="1" tooltips="1" connect="1" arrows="1" fold="1" page="1" pageScale="1" pageWidth="850" pageHeight="1100" math="0" shadow="0" extFonts="Permanent Marker^https://fonts.googleapis.com/css?family=Permanent+Marker">
      <root>
        <mxCell id="0" />
        <mxCell id="1" parent="0" />
        <mxCell id="XrPNCrt0sU9ygLMACBDO-2" style="edgeStyle=orthogonalEdgeStyle;rounded=0;orthogonalLoop=1;jettySize=auto;html=1;shape=wire;dashed=1;endArrow=none;endFill=0;entryX=0;entryY=0.5;entryDx=0;entryDy=0;" edge="1" parent="1" source="XrPNCrt0sU9ygLMACBDO-1" target="XrPNCrt0sU9ygLMACBDO-5">
          <mxGeometry relative="1" as="geometry">
            <mxPoint x="220" y="94.71" as="targetPoint" />
            <mxPoint x="140" y="94.71" as="sourcePoint" />
            <Array as="points">
              <mxPoint x="250" y="215" />
              <mxPoint x="250" y="215" />
            </Array>
          </mxGeometry>
        </mxCell>
        <mxCell id="XrPNCrt0sU9ygLMACBDO-81" value="" style="edgeStyle=orthogonalEdgeStyle;rounded=0;orthogonalLoop=1;jettySize=auto;html=1;endArrow=none;endFill=0;" edge="1" parent="1" source="XrPNCrt0sU9ygLMACBDO-1" target="XrPNCrt0sU9ygLMACBDO-82">
          <mxGeometry relative="1" as="geometry">
            <mxPoint x="65" y="305" as="targetPoint" />
          </mxGeometry>
        </mxCell>
        <mxCell id="XrPNCrt0sU9ygLMACBDO-1" value="Camionero" style="rounded=0;whiteSpace=wrap;html=1;" vertex="1" parent="1">
          <mxGeometry x="10" y="190" width="110" height="50" as="geometry" />
        </mxCell>
        <mxCell id="XrPNCrt0sU9ygLMACBDO-11" value="" style="edgeStyle=orthogonalEdgeStyle;rounded=0;orthogonalLoop=1;jettySize=auto;html=1;endArrow=none;endFill=0;entryX=0.5;entryY=0;entryDx=0;entryDy=0;" edge="1" parent="1" target="XrPNCrt0sU9ygLMACBDO-16">
          <mxGeometry relative="1" as="geometry">
            <mxPoint x="395" y="130" as="sourcePoint" />
            <mxPoint x="395" y="160" as="targetPoint" />
          </mxGeometry>
        </mxCell>
        <mxCell id="XrPNCrt0sU9ygLMACBDO-14" style="edgeStyle=orthogonalEdgeStyle;rounded=0;orthogonalLoop=1;jettySize=auto;html=1;exitX=1;exitY=0.5;exitDx=0;exitDy=0;entryX=0;entryY=0.5;entryDx=0;entryDy=0;endArrow=none;endFill=0;" edge="1" parent="1" source="XrPNCrt0sU9ygLMACBDO-3" target="XrPNCrt0sU9ygLMACBDO-13">
          <mxGeometry relative="1" as="geometry">
            <Array as="points">
              <mxPoint x="480" y="95" />
              <mxPoint x="480" y="55" />
              <mxPoint x="510" y="55" />
            </Array>
          </mxGeometry>
        </mxCell>
        <mxCell id="XrPNCrt0sU9ygLMACBDO-3" value="Paquete" style="rounded=0;whiteSpace=wrap;html=1;" vertex="1" parent="1">
          <mxGeometry x="340" y="70" width="110" height="50" as="geometry" />
        </mxCell>
        <mxCell id="XrPNCrt0sU9ygLMACBDO-6" style="edgeStyle=orthogonalEdgeStyle;rounded=0;orthogonalLoop=1;jettySize=auto;html=1;exitX=1;exitY=0.5;exitDx=0;exitDy=0;entryX=0;entryY=0.5;entryDx=0;entryDy=0;endArrow=none;endFill=0;" edge="1" parent="1" source="XrPNCrt0sU9ygLMACBDO-5" target="XrPNCrt0sU9ygLMACBDO-3">
          <mxGeometry relative="1" as="geometry" />
        </mxCell>
        <mxCell id="XrPNCrt0sU9ygLMACBDO-5" value="&lt;font style=&quot;font-size: 11px;&quot;&gt;transporta&lt;/font&gt;" style="rhombus;whiteSpace=wrap;html=1;" vertex="1" parent="1">
          <mxGeometry x="170" y="187.5" width="60" height="55" as="geometry" />
        </mxCell>
        <mxCell id="XrPNCrt0sU9ygLMACBDO-7" value="1" style="text;html=1;align=center;verticalAlign=middle;resizable=0;points=[];autosize=1;strokeColor=none;fillColor=none;" vertex="1" parent="1">
          <mxGeometry x="120" y="190" width="30" height="30" as="geometry" />
        </mxCell>
        <mxCell id="XrPNCrt0sU9ygLMACBDO-8" value="n" style="text;html=1;align=center;verticalAlign=middle;resizable=0;points=[];autosize=1;strokeColor=none;fillColor=none;" vertex="1" parent="1">
          <mxGeometry x="310" y="67.5" width="30" height="30" as="geometry" />
        </mxCell>
        <mxCell id="XrPNCrt0sU9ygLMACBDO-44" style="edgeStyle=orthogonalEdgeStyle;rounded=0;orthogonalLoop=1;jettySize=auto;html=1;entryX=1;entryY=0.5;entryDx=0;entryDy=0;endArrow=none;endFill=0;" edge="1" parent="1" source="XrPNCrt0sU9ygLMACBDO-10" target="XrPNCrt0sU9ygLMACBDO-43">
          <mxGeometry relative="1" as="geometry" />
        </mxCell>
        <mxCell id="XrPNCrt0sU9ygLMACBDO-10" value="Provincia" style="whiteSpace=wrap;html=1;rounded=0;" vertex="1" parent="1">
          <mxGeometry x="550" y="155" width="110" height="50" as="geometry" />
        </mxCell>
        <mxCell id="XrPNCrt0sU9ygLMACBDO-12" value="descripción" style="ellipse;whiteSpace=wrap;html=1;" vertex="1" parent="1">
          <mxGeometry x="510" y="70" width="70" height="30" as="geometry" />
        </mxCell>
        <mxCell id="XrPNCrt0sU9ygLMACBDO-13" value="&lt;u&gt;código&lt;/u&gt;" style="ellipse;whiteSpace=wrap;html=1;" vertex="1" parent="1">
          <mxGeometry x="510" y="40" width="70" height="30" as="geometry" />
        </mxCell>
        <mxCell id="XrPNCrt0sU9ygLMACBDO-19" style="edgeStyle=orthogonalEdgeStyle;rounded=0;orthogonalLoop=1;jettySize=auto;html=1;endArrow=none;endFill=0;" edge="1" parent="1" source="XrPNCrt0sU9ygLMACBDO-16" target="XrPNCrt0sU9ygLMACBDO-10">
          <mxGeometry relative="1" as="geometry">
            <mxPoint x="645" y="130" as="sourcePoint" />
          </mxGeometry>
        </mxCell>
        <mxCell id="XrPNCrt0sU9ygLMACBDO-16" value="vaPara" style="rhombus;whiteSpace=wrap;html=1;" vertex="1" parent="1">
          <mxGeometry x="357.5" y="150" width="75" height="60" as="geometry" />
        </mxCell>
        <mxCell id="XrPNCrt0sU9ygLMACBDO-20" value="n" style="text;html=1;align=center;verticalAlign=middle;resizable=0;points=[];autosize=1;strokeColor=none;fillColor=none;" vertex="1" parent="1">
          <mxGeometry x="395" y="120" width="30" height="30" as="geometry" />
        </mxCell>
        <mxCell id="XrPNCrt0sU9ygLMACBDO-21" value="1" style="text;html=1;align=center;verticalAlign=middle;resizable=0;points=[];autosize=1;strokeColor=none;fillColor=none;" vertex="1" parent="1">
          <mxGeometry x="520" y="155" width="30" height="30" as="geometry" />
        </mxCell>
        <mxCell id="XrPNCrt0sU9ygLMACBDO-23" value="" style="edgeStyle=orthogonalEdgeStyle;rounded=0;orthogonalLoop=1;jettySize=auto;html=1;endArrow=none;endFill=0;entryDx=0;entryDy=0;" edge="1" parent="1">
          <mxGeometry relative="1" as="geometry">
            <mxPoint x="395" y="130" as="sourcePoint" />
            <mxPoint x="395" y="130" as="targetPoint" />
          </mxGeometry>
        </mxCell>
        <mxCell id="XrPNCrt0sU9ygLMACBDO-29" value="" style="edgeStyle=orthogonalEdgeStyle;rounded=0;orthogonalLoop=1;jettySize=auto;html=1;endArrow=none;endFill=0;entryDx=0;entryDy=0;" edge="1" parent="1" source="XrPNCrt0sU9ygLMACBDO-3">
          <mxGeometry relative="1" as="geometry">
            <mxPoint x="395" y="120" as="sourcePoint" />
            <mxPoint x="395" y="130" as="targetPoint" />
          </mxGeometry>
        </mxCell>
        <mxCell id="XrPNCrt0sU9ygLMACBDO-43" value="&lt;u&gt;código&lt;/u&gt;" style="ellipse;whiteSpace=wrap;html=1;" vertex="1" parent="1">
          <mxGeometry x="500" y="220" width="70" height="30" as="geometry" />
        </mxCell>
        <mxCell id="XrPNCrt0sU9ygLMACBDO-61" value="destinatario" style="ellipse;whiteSpace=wrap;html=1;" vertex="1" parent="1">
          <mxGeometry x="580" y="70" width="70" height="30" as="geometry" />
        </mxCell>
        <mxCell id="XrPNCrt0sU9ygLMACBDO-62" value="nombre" style="ellipse;whiteSpace=wrap;html=1;" vertex="1" parent="1">
          <mxGeometry x="500" y="250" width="70" height="30" as="geometry" />
        </mxCell>
        <mxCell id="XrPNCrt0sU9ygLMACBDO-70" value="&lt;font style=&quot;font-size: 11px;&quot;&gt;dirDestiatario&lt;/font&gt;" style="ellipse;whiteSpace=wrap;html=1;" vertex="1" parent="1">
          <mxGeometry x="580" y="40" width="70" height="30" as="geometry" />
        </mxCell>
        <mxCell id="XrPNCrt0sU9ygLMACBDO-73" value="&lt;u&gt;dni&lt;/u&gt;" style="ellipse;whiteSpace=wrap;html=1;" vertex="1" parent="1">
          <mxGeometry x="70" y="110" width="70" height="30" as="geometry" />
        </mxCell>
        <mxCell id="XrPNCrt0sU9ygLMACBDO-74" value="dirección" style="ellipse;whiteSpace=wrap;html=1;" vertex="1" parent="1">
          <mxGeometry y="80" width="70" height="30" as="geometry" />
        </mxCell>
        <mxCell id="XrPNCrt0sU9ygLMACBDO-75" value="nombre" style="ellipse;whiteSpace=wrap;html=1;" vertex="1" parent="1">
          <mxGeometry x="70" y="50" width="70" height="30" as="geometry" />
        </mxCell>
        <mxCell id="XrPNCrt0sU9ygLMACBDO-76" value="apellido" style="ellipse;whiteSpace=wrap;html=1;" vertex="1" parent="1">
          <mxGeometry x="70" y="80" width="70" height="30" as="geometry" />
        </mxCell>
        <mxCell id="XrPNCrt0sU9ygLMACBDO-77" value="salario" style="ellipse;whiteSpace=wrap;html=1;" vertex="1" parent="1">
          <mxGeometry y="110" width="70" height="30" as="geometry" />
        </mxCell>
        <mxCell id="XrPNCrt0sU9ygLMACBDO-78" value="población" style="ellipse;whiteSpace=wrap;html=1;" vertex="1" parent="1">
          <mxGeometry y="50" width="70" height="30" as="geometry" />
        </mxCell>
        <mxCell id="XrPNCrt0sU9ygLMACBDO-79" style="edgeStyle=orthogonalEdgeStyle;rounded=0;orthogonalLoop=1;jettySize=auto;html=1;exitX=0.5;exitY=0;exitDx=0;exitDy=0;entryX=0.457;entryY=1.021;entryDx=0;entryDy=0;entryPerimeter=0;endArrow=none;endFill=0;" edge="1" parent="1" source="XrPNCrt0sU9ygLMACBDO-1" target="XrPNCrt0sU9ygLMACBDO-73">
          <mxGeometry relative="1" as="geometry" />
        </mxCell>
        <mxCell id="XrPNCrt0sU9ygLMACBDO-84" style="edgeStyle=orthogonalEdgeStyle;rounded=0;orthogonalLoop=1;jettySize=auto;html=1;exitX=1;exitY=0.5;exitDx=0;exitDy=0;endArrow=none;endFill=0;" edge="1" parent="1" source="XrPNCrt0sU9ygLMACBDO-82" target="XrPNCrt0sU9ygLMACBDO-83">
          <mxGeometry relative="1" as="geometry" />
        </mxCell>
        <mxCell id="XrPNCrt0sU9ygLMACBDO-82" value="maneja" style="rhombus;whiteSpace=wrap;html=1;" vertex="1" parent="1">
          <mxGeometry x="35" y="280" width="60" height="55" as="geometry" />
        </mxCell>
        <mxCell id="XrPNCrt0sU9ygLMACBDO-91" style="edgeStyle=orthogonalEdgeStyle;rounded=0;orthogonalLoop=1;jettySize=auto;html=1;exitX=1;exitY=0.5;exitDx=0;exitDy=0;endArrow=none;endFill=0;" edge="1" parent="1" source="XrPNCrt0sU9ygLMACBDO-83" target="XrPNCrt0sU9ygLMACBDO-88">
          <mxGeometry relative="1" as="geometry">
            <Array as="points">
              <mxPoint x="310" y="307" />
              <mxPoint x="310" y="307" />
            </Array>
          </mxGeometry>
        </mxCell>
        <mxCell id="XrPNCrt0sU9ygLMACBDO-83" value="Camionero" style="rounded=0;whiteSpace=wrap;html=1;" vertex="1" parent="1">
          <mxGeometry x="160" y="282.5" width="110" height="50" as="geometry" />
        </mxCell>
        <mxCell id="XrPNCrt0sU9ygLMACBDO-85" value="n" style="text;html=1;align=center;verticalAlign=middle;resizable=0;points=[];autosize=1;strokeColor=none;fillColor=none;" vertex="1" parent="1">
          <mxGeometry x="60" y="240" width="30" height="30" as="geometry" />
        </mxCell>
        <mxCell id="XrPNCrt0sU9ygLMACBDO-86" value="m" style="text;html=1;align=center;verticalAlign=middle;resizable=0;points=[];autosize=1;strokeColor=none;fillColor=none;" vertex="1" parent="1">
          <mxGeometry x="130" y="282.5" width="30" height="30" as="geometry" />
        </mxCell>
        <mxCell id="XrPNCrt0sU9ygLMACBDO-87" value="tipo" style="ellipse;whiteSpace=wrap;html=1;" vertex="1" parent="1">
          <mxGeometry x="325" y="322.5" width="70" height="30" as="geometry" />
        </mxCell>
        <mxCell id="XrPNCrt0sU9ygLMACBDO-88" value="&lt;u&gt;matrícula&lt;/u&gt;" style="ellipse;whiteSpace=wrap;html=1;" vertex="1" parent="1">
          <mxGeometry x="325" y="292.5" width="70" height="30" as="geometry" />
        </mxCell>
        <mxCell id="XrPNCrt0sU9ygLMACBDO-89" value="potencia" style="ellipse;whiteSpace=wrap;html=1;" vertex="1" parent="1">
          <mxGeometry x="395" y="322.5" width="70" height="30" as="geometry" />
        </mxCell>
        <mxCell id="XrPNCrt0sU9ygLMACBDO-90" value="modelo" style="ellipse;whiteSpace=wrap;html=1;" vertex="1" parent="1">
          <mxGeometry x="395" y="292.5" width="70" height="30" as="geometry" />
        </mxCell>
      </root>
    </mxGraphModel>
  </diagram>
</mxfile>
